<?xml version="1.0" encoding="UTF-8" standalone="no"?><!DOCTYPE svg PUBLIC "-//W3C//DTD SVG 1.1//EN" "http://www.w3.org/Graphics/SVG/1.1/DTD/svg11.dtd"><svg width="100%" height="100%" viewBox="0 0 800 800" version="1.1" xmlns="http://www.w3.org/2000/svg" xmlns:xlink="http://www.w3.org/1999/xlink" xml:space="preserve" xmlns:serif="http://www.serif.com/" style="fill-rule:evenodd;clip-rule:evenodd;stroke-linejoin:round;stroke-miterlimit:2;"><rect id="favicon1" x="0" y="-0" width="800" height="800" style="fill:none;"/><g id="favicon11" serif:id="favicon1"><path d="M603.826,450.037l112.447,194.764c-72.883,93.98 -186.669,154.651 -314.539,155.195l114.581,-198.459l0.042,-0l87.469,-151.5Z" style="fill:#0061e4;"/><path d="M54.456,601.5l229.165,-0l0.022,0.037l174.937,-0l-112.499,194.853c-124.445,-16.794 -230.814,-90.915 -291.625,-194.89Z" style="fill:#49d473;"/><path d="M770.268,248.5c19.166,46.744 29.732,97.898 29.732,151.5c0,72.213 -19.177,139.981 -52.721,198.504l-114.586,-198.467l0.022,-0.037l-87.469,-151.5l225.022,-0Z" style="fill:#813ebf;"/><path d="M52.721,201.496l114.586,198.467l-0.022,0.037l87.469,151.5l-225.022,-0c-19.166,-46.744 -29.732,-97.898 -29.732,-151.5c-0,-72.213 19.177,-139.981 52.721,-198.504Z" style="fill:#e5dc69;"/><path d="M398.266,0.004l-114.581,198.459l-0.042,0l-87.469,151.5l-112.447,-194.764c72.883,-93.98 186.669,-154.651 314.539,-155.195Z" style="fill:#fe8c48;"/><path d="M453.919,3.61c124.445,16.794 230.814,90.915 291.625,194.89l-229.165,-0l-0.022,-0.037l-174.937,0l112.499,-194.853Z" style="fill:#f8434e;"/></g></svg>